<?xml version="1.0" encoding="UTF-8" standalone="no"?>
<svg
   xmlns:dc="http://purl.org/dc/elements/1.1/"
   xmlns:cc="http://creativecommons.org/ns#"
   xmlns:rdf="http://www.w3.org/1999/02/22-rdf-syntax-ns#"
   xmlns:svg="http://www.w3.org/2000/svg"
   xmlns="http://www.w3.org/2000/svg"
   xmlns:sodipodi="http://sodipodi.sourceforge.net/DTD/sodipodi-0.dtd"
   xmlns:inkscape="http://www.inkscape.org/namespaces/inkscape"
   viewBox="0 0 82 81.999999"
   version="1.1"
   id="svg6"
   sodipodi:docname="logo.svg"
   width="82"
   height="82"
   inkscape:version="1.0.2 (e86c870879, 2021-01-15)">
  <metadata
     id="metadata12">
    <rdf:RDF>
      <cc:Work
         rdf:about="">
        <dc:format>image/svg+xml</dc:format>
        <dc:type
           rdf:resource="http://purl.org/dc/dcmitype/StillImage" />
        <dc:title></dc:title>
      </cc:Work>
    </rdf:RDF>
  </metadata>
  <defs
     id="defs10" />
  <sodipodi:namedview
     pagecolor="#ffffff"
     bordercolor="#666666"
     borderopacity="1"
     objecttolerance="10"
     gridtolerance="10"
     guidetolerance="10"
     inkscape:pageopacity="0"
     inkscape:pageshadow="2"
     inkscape:window-width="1920"
     inkscape:window-height="1080"
     id="namedview8"
     showgrid="false"
     lock-margins="false"
     fit-margin-top="0"
     fit-margin-left="0"
     fit-margin-right="0"
     fit-margin-bottom="0"
     inkscape:zoom="4.415"
     inkscape:cx="-17.891891"
     inkscape:cy="29.84447"
     inkscape:window-x="0"
     inkscape:window-y="0"
     inkscape:window-maximized="1"
     inkscape:current-layer="svg6" />
  <path
     d="m 46.525174,59.536557 c -2.293,0 -4.58,-0.204 -6.863,-0.612 -24.286,-4.344 -38.6089995,-30.243999 -39.20699947,-31.343999 a 3.501,3.501 0 0 1 6.14999997,-3.345 c 0.131,0.24 13.3629995,24.077999 34.3219995,27.803999 11.387,2.03 23.224,-2.254 35.174,-12.717 a 3.5,3.5 0 1 1 4.611,5.266 c -11.352,9.939 -22.822,14.948 -34.187,14.948 z"
     id="path2" />
  <path
     d="m 3.5751807,58.183347 a 3.498,3.498 0 0 1 -3.02599999,-5.25 c 0.58199999,-1.006 14.51499929,-24.673 38.15399929,-28.577 13.913,-2.298 28.064,2.75 42.057,15.002 a 3.5,3.5 0 0 1 -4.611,5.266 c -12.328,-10.794 -24.531,-15.29 -36.267,-13.368 -20.359,3.337 -33.1479993,24.966 -33.2749993,25.184 a 3.503,3.503 0 0 1 -3.032,1.743 z"
     id="path4" />
</svg>
